HIERARCHY
ROOT SpineBase
{
  OFFSET 0.000000 0.000000 0.000000
  CHANNELS 6 Xposition Yposition Zposition Zrotation Xrotation Yrotation
  JOINT SpineMid
  {
    OFFSET 0.000000 31.772770 0.000000
    CHANNELS 3 Zrotation Xrotation Yrotation
    JOINT SpineShoulder
    {
      OFFSET 0.393536 23.318403 -0.454609
      CHANNELS 3 Zrotation Xrotation Yrotation
      JOINT Neck
      {
        OFFSET 0.140947 7.683381 -0.396819
        CHANNELS 3 Zrotation Xrotation Yrotation
        JOINT Head
        {
          OFFSET 3.583779 13.641460 1.593019
          CHANNELS 3 Zrotation Xrotation Yrotation
          End Site
          {
            OFFSET 0 0 0
          }
        }
      }
      JOINT ShoulderLeft
      {
        OFFSET -9.836640 -3.096235 -11.584712
        CHANNELS 3 Zrotation Xrotation Yrotation
        JOINT ElbowLeft
        {
          OFFSET -9.260840 -28.818226 -2.090213
          CHANNELS 3 Zrotation Xrotation Yrotation
          JOINT WristLeft
          {
            OFFSET -2.971294 -22.776952 -0.351983
            CHANNELS 3 Zrotation Xrotation Yrotation
            JOINT HandLeft
            {
              OFFSET -0.957591 1.814063 1.104829
              CHANNELS 3 Zrotation Xrotation Yrotation
              JOINT HandTipLeft
              {
                OFFSET 0.004693 -6.929472 -0.502750
                CHANNELS 3 Zrotation Xrotation Yrotation
                End Site
                {
                  OFFSET 0 0 0
                }
              }
              JOINT ThumbLeft
              {
                OFFSET -3.484460 0.913936 -1.354283
                CHANNELS 3 Zrotation Xrotation Yrotation
                End Site
                {
                  OFFSET 0 0 0
                }
              }
            }
          }
        }
      }
      JOINT ShoulderRight
      {
        OFFSET 13.202088 -5.720083 9.243405
        CHANNELS 3 Zrotation Xrotation Yrotation
        JOINT ElbowRight
        {
          OFFSET 2.977414 -27.781430 8.916139
          CHANNELS 3 Zrotation Xrotation Yrotation
          JOINT WristRight
          {
            OFFSET -0.227764 -23.126185 -13.836234
            CHANNELS 3 Zrotation Xrotation Yrotation
            JOINT HandRight
            {
              OFFSET -1.145211 -3.204708 0.152277
              CHANNELS 3 Zrotation Xrotation Yrotation
              JOINT HandTipRight
              {
                OFFSET -2.391582 -4.464628 -0.528856
                CHANNELS 3 Zrotation Xrotation Yrotation
                End Site
                {
                  OFFSET 0 0 0
                }
              }
              JOINT ThumbRight
              {
                OFFSET -2.086267 -3.247623 -1.181163
                CHANNELS 3 Zrotation Xrotation Yrotation
                End Site
                {
                  OFFSET 0 0 0
                }
              }
            }
          }
        }
      }
    }
  }
  JOINT HipLeft
  {
    OFFSET -5.134203 1.484753 -6.899206
    CHANNELS 3 Zrotation Xrotation Yrotation
    JOINT KneeLeft
    {
      OFFSET -5.503819 -28.007969 3.118502
      CHANNELS 3 Zrotation Xrotation Yrotation
      JOINT AnkleLeft
      {
        OFFSET -3.722520 -28.915709 4.271864
        CHANNELS 3 Zrotation Xrotation Yrotation
        JOINT FootLeft
        {
          OFFSET 7.366880 -3.470456 -12.059952
          CHANNELS 3 Zrotation Xrotation Yrotation
          End Site
          {
            OFFSET 0 0 0
          }
        }
      }
    }
  }
  JOINT HipRight
  {
    OFFSET 5.724835 0.689611 -0.531726
    CHANNELS 3 Zrotation Xrotation Yrotation
    JOINT KneeRight
    {
      OFFSET -1.041999 -27.037689 8.310335
      CHANNELS 3 Zrotation Xrotation Yrotation
      JOINT AnkleRight
      {
        OFFSET -5.876947 -26.977069 4.362673
        CHANNELS 3 Zrotation Xrotation Yrotation
        JOINT FootRight
        {
          OFFSET 4.776220 -4.554167 -9.758547
          CHANNELS 3 Zrotation Xrotation Yrotation
          End Site
          {
            OFFSET 0 0 0
          }
        }
      }
    }
  }
}
MOTION
Frames: 15
Frame Time: 0.033333
-33.462793 28.432438 333.127923 -10.738484 -19.369956 40.183916 -0.391587 -1.704406 -42.141566 -0.057324 -0.093878 -0.272804 -45.657078 2.810425 20.268199 0.000000 0.000000 0.000000 -43.429160 36.218459 21.475133 0.836403 -0.322752 1.745613 -92.157223 -38.004241 -153.716605 -117.818537 -2.930869 170.977604 0.000000 0.000000 0.000000 0.000000 0.000000 0.000000 169.071893 46.346439 -99.058212 -80.250768 -8.342155 -69.801911 9.418379 33.305234 -31.252764 19.015063 -4.517774 5.331594 0.000000 0.000000 0.000000 0.000000 0.000000 0.000000 149.396286 34.184845 -159.218380 102.767957 -30.981366 106.956238 -20.611062 9.365175 26.976409 0.000000 0.000000 0.000000 164.064270 21.395216 -117.033658 -66.216293 -64.175232 -82.387156 -7.623199 -8.587646 66.221700 0.000000 0.000000 0.000000
-31.259882 31.539289 331.081545 -10.724052 -21.687895 36.258396 -0.535558 -1.091075 -38.283883 0.240939 -0.070431 -0.328760 -54.967734 7.084274 25.694059 0.000000 0.000000 0.000000 -37.963285 32.792309 19.539899 -2.007280 4.486521 1.524214 -95.245260 -34.418560 -135.785104 -112.937108 17.211803 178.032398 0.000000 0.000000 0.000000 0.000000 0.000000 0.000000 153.195070 58.192761 -97.393522 -69.818281 -11.077172 -54.473270 25.346771 33.123350 -33.169112 8.868055 -9.535364 -0.089586 0.000000 0.000000 0.000000 0.000000 0.000000 0.000000 152.519032 34.847898 -162.301360 87.939607 -39.065428 93.346955 -10.710281 0.695504 20.741755 0.000000 0.000000 0.000000 166.203432 21.573992 -123.193132 -104.869525 -64.102000 -116.217724 -6.030305 5.677803 64.764138 0.000000 0.000000 0.000000
-29.886595 32.418507 328.365544 -12.061646 -20.824389 30.363613 -0.785085 -0.548211 -32.475376 1.000816 -0.551098 -0.535486 -48.723417 5.924726 23.018280 0.000000 0.000000 0.000000 -34.926939 30.152522 18.004426 -2.815309 8.131625 1.966648 -99.537915 -28.475183 -132.745431 -110.399805 25.166237 -177.785071 0.000000 0.000000 0.000000 0.000000 0.000000 0.000000 124.974343 66.845020 -76.116611 -59.697674 -6.977760 -39.863707 36.912226 29.416706 -32.625803 -1.730557 -12.097289 -6.919170 0.000000 0.000000 0.000000 0.000000 0.000000 0.000000 155.586834 37.629231 -165.569934 68.036176 -43.794451 75.154522 2.324678 -8.158981 15.887938 0.000000 0.000000 0.000000 168.835593 24.318238 -129.615832 -117.920759 -59.905177 -128.423147 -4.295652 11.091301 65.114598 0.000000 0.000000 0.000000
-27.422945 31.254595 326.590680 -12.104970 -19.324073 29.526963 -0.357377 -1.137516 -31.639797 0.464373 -0.219253 -0.412608 -32.181676 5.050567 16.416827 0.000000 0.000000 0.000000 -38.475233 31.561930 18.958318 0.689870 6.546779 2.422182 -103.211012 -23.386086 -135.227970 -108.892273 28.092260 -176.276164 0.000000 0.000000 0.000000 0.000000 0.000000 0.000000 80.219343 64.457977 -36.284180 -51.094634 4.671061 -25.028518 40.473246 22.963178 -28.949813 -7.296269 -9.742500 -11.655957 0.000000 0.000000 0.000000 0.000000 0.000000 0.000000 155.192255 38.873601 -165.913369 46.033737 -41.230578 54.154863 18.381737 -17.537654 16.118366 0.000000 0.000000 0.000000 169.054095 25.562117 -133.172169 -108.841699 -58.896248 -124.239496 1.733913 10.107021 66.941404 0.000000 0.000000 0.000000
-24.877799 32.633663 325.973699 -12.338328 -20.326653 26.396942 -0.183683 -1.147016 -28.660634 0.380223 0.056264 -0.384841 -16.424894 3.725162 11.750959 0.000000 0.000000 0.000000 -39.924435 30.406377 19.979683 2.674313 8.249514 2.732242 -112.421326 -20.377680 -112.948192 -128.202249 49.347946 -151.369353 0.000000 0.000000 0.000000 0.000000 0.000000 0.000000 51.423664 59.252351 -17.013647 -41.932167 9.463952 -12.378660 42.745903 22.589860 -28.568005 -9.635692 -13.094620 -12.197958 0.000000 0.000000 0.000000 0.000000 0.000000 0.000000 157.367962 40.112721 -168.336132 29.822226 -36.016528 38.188263 33.252944 -20.085617 20.628746 0.000000 0.000000 0.000000 170.614848 26.455938 -138.863162 -107.377835 -55.919306 -125.471423 8.521213 16.144164 65.489820 0.000000 0.000000 0.000000
-21.282488 34.944857 326.335946 -11.184374 -22.717718 25.296231 0.708467 -1.207180 -27.634367 -0.322144 0.334611 -0.196175 -2.480003 6.334769 7.104599 0.000000 0.000000 0.000000 -41.600805 29.926204 21.219702 5.740805 10.927410 3.069558 -109.180783 -14.185983 -138.536212 -110.320963 26.002584 -168.357718 0.000000 0.000000 0.000000 0.000000 0.000000 0.000000 34.963327 56.127684 -9.538215 -32.805063 12.245437 -5.283379 37.638867 23.294088 -28.828397 -7.016330 -12.773529 -10.660030 0.000000 0.000000 0.000000 0.000000 0.000000 0.000000 157.867563 39.526488 -169.083671 20.002952 -30.490013 28.411392 44.754778 -22.392939 23.593363 0.000000 0.000000 0.000000 170.740504 26.092451 -144.497944 -87.290524 -61.458453 -108.279323 7.239122 7.908876 71.735501 0.000000 0.000000 0.000000
-17.085489 37.813440 327.068702 -8.857922 -25.917881 25.404571 1.978328 -1.387217 -27.663195 -0.896842 0.663483 0.038779 2.780146 5.632371 5.292060 0.000000 0.000000 0.000000 -44.909401 30.803026 23.182157 8.618812 14.591110 3.578069 -117.403159 -8.677853 -131.535445 -117.667687 32.477192 -156.850282 0.000000 0.000000 0.000000 0.000000 0.000000 0.000000 24.347932 54.946831 -6.297521 -25.311433 13.306065 -2.539377 32.624121 25.800344 -29.590124 -4.323599 -13.958382 -8.440592 0.000000 0.000000 0.000000 0.000000 0.000000 0.000000 157.527531 38.061740 -169.795826 14.828675 -26.269546 23.106031 53.096271 -26.485198 24.793833 0.000000 0.000000 0.000000 169.613066 25.195875 -148.773705 -53.159648 -63.309642 -75.315368 4.358416 -9.539404 76.620345 0.000000 0.000000 0.000000
-12.148291 40.636363 327.967870 -3.413949 -28.613722 27.297519 1.569606 -1.220334 -28.185847 -1.602100 0.559174 0.333817 -1.520151 5.503029 6.911374 0.000000 0.000000 0.000000 -47.984406 33.360837 25.058720 11.153249 17.502611 3.843244 -109.805207 -11.544340 -170.219327 -102.021679 -0.136558 178.873115 0.000000 0.000000 0.000000 0.000000 0.000000 0.000000 19.748154 57.896011 -6.245917 -20.684129 10.335724 -4.073158 30.981042 30.669521 -31.479401 -3.069674 -15.727512 -7.449020 0.000000 0.000000 0.000000 0.000000 0.000000 0.000000 155.277138 36.178011 -172.043715 13.983768 -23.226844 22.573657 56.894260 -34.182265 25.020951 0.000000 0.000000 0.000000 166.150379 24.191906 -154.695992 -17.858689 -56.922394 -39.532646 -2.499356 -36.324622 80.176456 0.000000 0.000000 0.000000
-8.576358 43.857846 328.964351 1.213440 -31.508177 28.502379 1.124289 -0.958716 -27.954865 -1.908652 0.528379 0.553160 -9.719852 7.123359 10.180014 0.000000 0.000000 0.000000 -49.103953 38.120602 26.282168 11.460956 19.057159 4.007204 -111.861101 -16.066743 173.489855 -108.468256 -19.212855 171.408251 0.000000 0.000000 0.000000 0.000000 0.000000 0.000000 24.921360 61.911481 -11.445361 -19.255450 6.209739 -8.801192 26.392838 34.190865 -31.999927 1.041120 -14.791233 -4.964066 0.000000 0.000000 0.000000 0.000000 0.000000 0.000000 153.668052 34.331758 -173.460949 14.546225 -22.875650 23.423602 54.685158 -39.969453 22.888645 0.000000 0.000000 0.000000 163.580930 23.300536 -157.906490 -9.353702 -49.585231 -30.685329 -3.998716 -56.049319 81.451856 0.000000 0.000000 0.000000
-4.604533 46.636708 329.583695 4.695122 -34.365353 28.307421 0.295916 -0.625129 -26.309420 -1.929727 0.509193 0.674943 -10.981480 7.088549 11.420892 0.000000 0.000000 0.000000 -54.140992 41.797490 30.359303 15.975845 20.412868 4.514383 -118.679359 -29.129957 144.063374 -123.800617 -45.560061 141.208243 0.000000 0.000000 0.000000 0.000000 0.000000 0.000000 25.434547 62.050155 -13.334279 -17.378709 7.178925 -9.750606 25.107518 34.759463 -31.194796 2.284135 -11.859617 -5.700812 0.000000 0.000000 0.000000 0.000000 0.000000 0.000000 153.699915 33.323574 -176.090916 13.475661 -20.988636 22.545066 58.653971 -48.108615 23.142293 0.000000 0.000000 0.000000 162.922399 22.669024 -162.477127 -3.270282 -44.981400 -23.462824 -3.202634 -77.545844 81.897060 0.000000 0.000000 0.000000
-1.608509 48.569984 330.060559 6.880111 -36.708916 28.100970 -0.945443 -0.316858 -24.787151 -1.576480 0.570764 0.634911 -10.115393 7.906872 11.621176 0.000000 0.000000 0.000000 -59.905562 46.133007 35.510547 20.247836 19.656018 5.652936 -131.941210 -38.203484 123.322188 -148.088431 -43.605716 111.274162 0.000000 0.000000 0.000000 0.000000 0.000000 0.000000 26.999334 61.861854 -15.247521 -15.861009 8.920307 -10.554739 24.300976 35.234714 -30.775972 4.614767 -11.377296 -4.469607 0.000000 0.000000 0.000000 0.000000 0.000000 0.000000 154.001075 32.588131 -177.754205 12.483569 -19.468453 21.670165 63.622988 -55.988103 24.971685 0.000000 0.000000 0.000000 162.897735 21.781165 -165.066849 -0.340784 -43.443958 -19.380084 158.937832 -84.160151 -122.103668 0.000000 0.000000 0.000000
-0.038813 49.412274 330.104324 6.957834 -38.241996 28.282272 -1.657915 0.056097 -24.535899 -1.089816 0.437260 0.493911 -17.750775 7.756112 16.086096 0.000000 0.000000 0.000000 -62.467282 49.692756 38.713328 23.171316 19.274216 6.600740 -146.693823 -44.261163 111.175473 -149.340713 -29.062997 103.422782 0.000000 0.000000 0.000000 0.000000 0.000000 0.000000 28.252442 60.525490 -16.059991 -15.893460 13.454209 -10.250518 32.515349 29.223378 -26.264437 -1.594926 -9.524339 -11.136845 0.000000 0.000000 0.000000 0.000000 0.000000 0.000000 153.761802 31.484019 -176.121742 11.348587 -19.298321 20.677780 69.509495 -63.918720 28.395115 0.000000 0.000000 0.000000 163.213911 20.475982 -163.739482 -1.424349 -45.204829 -19.868404 165.408854 -75.353351 -128.635599 0.000000 0.000000 0.000000
-0.157076 49.170806 329.043928 3.679283 -38.586845 26.809401 -2.538647 0.396484 -23.932115 0.106045 0.270890 0.027898 -15.533038 9.363588 15.437881 0.000000 0.000000 0.000000 -59.441739 54.886940 38.631164 24.051670 17.672004 7.614037 -163.047041 -53.537255 112.323414 -142.970656 -5.458221 108.607549 0.000000 0.000000 0.000000 0.000000 0.000000 0.000000 31.364234 59.658419 -17.111823 -15.137974 16.857315 -10.227386 32.446906 22.523342 -20.604544 -1.765017 -4.761739 -14.314526 0.000000 0.000000 0.000000 0.000000 0.000000 0.000000 154.248394 31.004828 -172.206296 11.230546 -19.623162 21.514902 70.733337 -69.661033 30.288161 0.000000 0.000000 0.000000 164.769603 19.723584 -158.691526 -2.285339 -45.516857 -20.097606 174.887471 -62.349247 -127.155054 0.000000 0.000000 0.000000
-0.514575 48.022675 328.973641 -0.340966 -39.028531 26.417784 -2.966855 0.512427 -24.875567 0.487353 0.936109 -0.198588 -7.325824 11.077084 11.634945 0.000000 0.000000 0.000000 -55.273776 57.524449 37.617339 24.171406 16.506490 8.196495 -172.290137 -57.429295 107.300050 -139.085191 2.935414 106.930912 0.000000 0.000000 0.000000 0.000000 0.000000 0.000000 34.392980 59.104944 -17.706400 -15.078139 21.004166 -9.334886 35.277245 15.860008 -15.240582 -2.333378 -1.374131 -17.606858 0.000000 0.000000 0.000000 0.000000 0.000000 0.000000 154.830222 29.914847 -167.181037 10.457689 -19.773853 21.366722 72.684682 -72.590188 33.257959 0.000000 0.000000 0.000000 166.817343 18.301218 -152.471396 -0.360966 -42.952652 -17.764018 178.873739 -41.594143 -126.863858 0.000000 0.000000 0.000000
-1.442393 47.895743 328.673597 -5.270833 -39.512308 23.638668 -2.849312 0.475255 -23.995728 1.138927 0.993640 -0.501294 -9.393934 10.837388 13.697971 0.000000 0.000000 0.000000 -52.310323 59.542873 37.637235 21.950029 14.422431 8.431729 -149.926159 -49.972938 133.643687 -140.856000 1.254826 125.505357 0.000000 0.000000 0.000000 0.000000 0.000000 0.000000 36.687645 58.775657 -18.142448 -15.145580 24.867373 -7.890034 40.442398 10.936547 -9.973387 -6.760078 -0.378495 -21.438633 0.000000 0.000000 0.000000 0.000000 0.000000 0.000000 156.386655 29.808580 -162.742374 9.567239 -20.577434 21.133748 59.675750 -67.856028 23.419373 0.000000 0.000000 0.000000 169.813052 18.172945 -147.592963 -1.592035 -43.752115 -18.190335 178.807439 -41.828804 -123.204930 0.000000 0.000000 0.000000
